<?xml version="1.0" encoding="utf-8"?>
<!-- Generator: Adobe Illustrator 26.5.0, SVG Export Plug-In . SVG Version: 6.00 Build 0)  -->
<svg version="1.1" id="Layer_1" xmlns="http://www.w3.org/2000/svg" xmlns:xlink="http://www.w3.org/1999/xlink" x="0px" y="0px"
	 viewBox="0 0 245 32.7" style="enable-background:new 0 0 245 32.7;" xml:space="preserve">
<style type="text/css">
	.st0{fill-rule:evenodd;clip-rule:evenodd;fill:#006090;}
	.st1{fill:#006090;}
	.st2{font-family:'MyriadPro-Regular';}
	.st3{font-size:32px;}
</style>
<path class="st0" d="M0,0h20.6c0.9,0,1.3,0.4,1.3,1.3v30.1c0,0.9-0.4,1.3-1.3,1.3H0V0z M3.3,4.9c-0.9,0-1.6,0.7-1.6,1.6
	s0.7,1.6,1.6,1.6s1.6-0.7,1.6-1.6S4.2,4.9,3.3,4.9z M3.3,24.5c-0.9,0-1.6,0.7-1.6,1.6s0.7,1.6,1.6,1.6s1.6-0.7,1.6-1.6
	S4.2,24.5,3.3,24.5z M3.3,14.7c-0.9,0-1.6,0.7-1.6,1.6S2.4,18,3.3,18s1.6-0.7,1.6-1.6S4.2,14.7,3.3,14.7z"/>
<text transform="matrix(1 0 0 1 37.3709 27.7643)" class="st1 st2 st3">DevTools Notes</text>
</svg>
